<svg width="455" height="122" viewBox="0 0 455 122" fill="none" xmlns="http://www.w3.org/2000/svg">
<g id="logo">
<g id="logo_2">
<g id="mcblacc" style="mix-blend-mode:difference">
<path d="M86.296 94V46.672H95.992V52.24H97.528C98.424 50.576 99.864 49.104 101.848 47.824C103.832 46.544 106.52 45.904 109.912 45.904C113.432 45.904 116.248 46.64 118.36 48.112C120.536 49.52 122.168 51.344 123.256 53.584H124.792C125.88 51.408 127.448 49.584 129.496 48.112C131.608 46.64 134.584 45.904 138.424 45.904C141.496 45.904 144.216 46.544 146.584 47.824C148.952 49.04 150.84 50.896 152.248 53.392C153.656 55.824 154.36 58.864 154.36 62.512V94H144.472V63.28C144.472 60.4 143.672 58.192 142.072 56.656C140.536 55.056 138.328 54.256 135.448 54.256C132.376 54.256 129.912 55.248 128.056 57.232C126.2 59.216 125.272 62.064 125.272 65.776V94H115.384V63.28C115.384 60.4 114.584 58.192 112.984 56.656C111.448 55.056 109.24 54.256 106.36 54.256C103.288 54.256 100.824 55.248 98.968 57.232C97.112 59.216 96.184 62.064 96.184 65.776V94H86.296ZM184.353 95.344C179.809 95.344 175.681 94.384 171.969 92.464C168.321 90.544 165.409 87.76 163.233 84.112C161.121 80.464 160.065 76.08 160.065 70.96V69.712C160.065 64.592 161.121 60.24 163.233 56.656C165.409 53.008 168.321 50.224 171.969 48.304C175.681 46.32 179.809 45.328 184.353 45.328C188.897 45.328 192.769 46.16 195.969 47.824C199.169 49.488 201.729 51.696 203.649 54.448C205.633 57.2 206.913 60.24 207.489 63.568L197.889 65.584C197.569 63.472 196.897 61.552 195.873 59.824C194.849 58.096 193.409 56.72 191.553 55.696C189.697 54.672 187.361 54.16 184.545 54.16C181.793 54.16 179.297 54.8 177.057 56.08C174.881 57.296 173.153 59.088 171.873 61.456C170.593 63.76 169.953 66.576 169.953 69.904V70.768C169.953 74.096 170.593 76.944 171.873 79.312C173.153 81.68 174.881 83.472 177.057 84.688C179.297 85.904 181.793 86.512 184.545 86.512C188.705 86.512 191.873 85.456 194.049 83.344C196.225 81.168 197.601 78.416 198.177 75.088L207.777 77.296C207.009 80.56 205.633 83.568 203.649 86.32C201.729 89.072 199.169 91.28 195.969 92.944C192.769 94.544 188.897 95.344 184.353 95.344ZM240.301 95.344C235.693 95.344 232.141 94.512 229.645 92.848C227.213 91.184 225.389 89.328 224.173 87.28H222.637V94H212.941V26.8H222.829V53.104H224.365C225.133 51.824 226.157 50.608 227.437 49.456C228.717 48.24 230.413 47.248 232.525 46.48C234.637 45.712 237.229 45.328 240.301 45.328C244.269 45.328 247.917 46.288 251.245 48.208C254.573 50.128 257.229 52.912 259.213 56.56C261.197 60.208 262.189 64.56 262.189 69.616V71.056C262.189 76.176 261.165 80.56 259.117 84.208C257.133 87.792 254.477 90.544 251.149 92.464C247.885 94.384 244.269 95.344 240.301 95.344ZM237.421 86.704C241.709 86.704 245.229 85.328 247.981 82.576C250.797 79.824 252.205 75.888 252.205 70.768V69.904C252.205 64.848 250.829 60.944 248.077 58.192C245.325 55.44 241.773 54.064 237.421 54.064C233.197 54.064 229.677 55.44 226.861 58.192C224.109 60.944 222.733 64.848 222.733 69.904V70.768C222.733 75.888 224.109 79.824 226.861 82.576C229.677 85.328 233.197 86.704 237.421 86.704ZM268.201 94V26.8H278.089V94H268.201ZM301.212 95.344C297.82 95.344 294.78 94.768 292.092 93.616C289.468 92.464 287.356 90.768 285.756 88.528C284.22 86.288 283.452 83.568 283.452 80.368C283.452 77.104 284.22 74.416 285.756 72.304C287.356 70.128 289.5 68.496 292.188 67.408C294.94 66.32 298.044 65.776 301.5 65.776H315.9V62.704C315.9 59.952 315.068 57.744 313.404 56.08C311.74 54.416 309.18 53.584 305.724 53.584C302.332 53.584 299.74 54.384 297.948 55.984C296.156 57.584 294.972 59.664 294.396 62.224L285.18 59.248C285.948 56.688 287.164 54.384 288.828 52.336C290.556 50.224 292.828 48.528 295.644 47.248C298.46 45.968 301.852 45.328 305.82 45.328C311.964 45.328 316.796 46.896 320.316 50.032C323.836 53.168 325.596 57.616 325.596 63.376V82.864C325.596 84.784 326.492 85.744 328.284 85.744H332.316V94H324.924C322.684 94 320.86 93.424 319.452 92.272C318.044 91.12 317.34 89.552 317.34 87.568V87.28H315.9C315.388 88.24 314.62 89.36 313.596 90.64C312.572 91.92 311.068 93.04 309.084 94C307.1 94.896 304.476 95.344 301.212 95.344ZM302.652 87.184C306.62 87.184 309.82 86.064 312.252 83.824C314.684 81.52 315.9 78.384 315.9 74.416V73.456H302.076C299.452 73.456 297.34 74.032 295.74 75.184C294.14 76.272 293.34 77.904 293.34 80.08C293.34 82.256 294.172 83.984 295.836 85.264C297.5 86.544 299.772 87.184 302.652 87.184ZM356.549 95.344C352.005 95.344 347.877 94.384 344.165 92.464C340.517 90.544 337.605 87.76 335.429 84.112C333.317 80.464 332.261 76.08 332.261 70.96V69.712C332.261 64.592 333.317 60.24 335.429 56.656C337.605 53.008 340.517 50.224 344.165 48.304C347.877 46.32 352.005 45.328 356.549 45.328C361.093 45.328 364.965 46.16 368.165 47.824C371.365 49.488 373.925 51.696 375.845 54.448C377.829 57.2 379.109 60.24 379.685 63.568L370.085 65.584C369.765 63.472 369.093 61.552 368.069 59.824C367.045 58.096 365.605 56.72 363.749 55.696C361.893 54.672 359.557 54.16 356.741 54.16C353.989 54.16 351.493 54.8 349.253 56.08C347.077 57.296 345.349 59.088 344.069 61.456C342.789 63.76 342.149 66.576 342.149 69.904V70.768C342.149 74.096 342.789 76.944 344.069 79.312C345.349 81.68 347.077 83.472 349.253 84.688C351.493 85.904 353.989 86.512 356.741 86.512C360.901 86.512 364.069 85.456 366.245 83.344C368.421 81.168 369.797 78.416 370.373 75.088L379.973 77.296C379.205 80.56 377.829 83.568 375.845 86.32C373.925 89.072 371.365 91.28 368.165 92.944C364.965 94.544 361.093 95.344 356.549 95.344ZM407.121 95.344C402.577 95.344 398.449 94.384 394.737 92.464C391.089 90.544 388.177 87.76 386.001 84.112C383.889 80.464 382.833 76.08 382.833 70.96V69.712C382.833 64.592 383.889 60.24 386.001 56.656C388.177 53.008 391.089 50.224 394.737 48.304C398.449 46.32 402.577 45.328 407.121 45.328C411.665 45.328 415.537 46.16 418.737 47.824C421.937 49.488 424.497 51.696 426.417 54.448C428.401 57.2 429.681 60.24 430.257 63.568L420.657 65.584C420.337 63.472 419.665 61.552 418.641 59.824C417.617 58.096 416.177 56.72 414.321 55.696C412.465 54.672 410.129 54.16 407.313 54.16C404.561 54.16 402.065 54.8 399.825 56.08C397.649 57.296 395.921 59.088 394.641 61.456C393.361 63.76 392.721 66.576 392.721 69.904V70.768C392.721 74.096 393.361 76.944 394.641 79.312C395.921 81.68 397.649 83.472 399.825 84.688C402.065 85.904 404.561 86.512 407.313 86.512C411.473 86.512 414.641 85.456 416.817 83.344C418.993 81.168 420.369 78.416 420.945 75.088L430.545 77.296C429.777 80.56 428.401 83.568 426.417 86.32C424.497 89.072 421.937 91.28 418.737 92.944C415.537 94.544 411.665 95.344 407.121 95.344Z" fill="white"/>
<path d="M86.296 94H84.296V96H86.296V94ZM86.296 46.672V44.672H84.296V46.672H86.296ZM95.992 46.672H97.992V44.672H95.992V46.672ZM95.992 52.24H93.992V54.24H95.992V52.24ZM97.528 52.24V54.24H98.7226L99.2889 53.1882L97.528 52.24ZM101.848 47.824L100.764 46.1434L100.764 46.1434L101.848 47.824ZM118.36 48.112L117.216 49.7528L117.245 49.7725L117.274 49.7911L118.36 48.112ZM123.256 53.584L121.457 54.4578L122.004 55.584H123.256V53.584ZM124.792 53.584V55.584H126.028L126.581 54.4784L124.792 53.584ZM129.496 48.112L128.352 46.4712L128.341 46.4795L128.329 46.488L129.496 48.112ZM146.584 47.824L145.633 49.5834L145.652 49.5935L145.67 49.6031L146.584 47.824ZM152.248 53.392L150.506 54.3746L150.512 54.3844L150.517 54.3941L152.248 53.392ZM154.36 94V96H156.36V94H154.36ZM144.472 94H142.472V96H144.472V94ZM142.072 56.656L140.629 58.0411L140.657 58.0705L140.687 58.0988L142.072 56.656ZM128.056 57.232L129.517 58.5983L129.517 58.5983L128.056 57.232ZM125.272 94V96H127.272V94H125.272ZM115.384 94H113.384V96H115.384V94ZM112.984 56.656L111.541 58.0411L111.569 58.0705L111.599 58.0988L112.984 56.656ZM98.968 57.232L100.429 58.5983L100.429 58.5983L98.968 57.232ZM96.184 94V96H98.184V94H96.184ZM88.296 94V46.672H84.296V94H88.296ZM86.296 48.672H95.992V44.672H86.296V48.672ZM93.992 46.672V52.24H97.992V46.672H93.992ZM95.992 54.24H97.528V50.24H95.992V54.24ZM99.2889 53.1882C99.9897 51.8869 101.162 50.6464 102.932 49.5046L100.764 46.1434C98.5656 47.5616 96.8583 49.2651 95.7671 51.2918L99.2889 53.1882ZM102.932 49.5046C104.481 48.5054 106.745 47.904 109.912 47.904V43.904C106.295 43.904 103.183 44.5826 100.764 46.1434L102.932 49.5046ZM109.912 47.904C113.17 47.904 115.543 48.5864 117.216 49.7528L119.504 46.4712C116.953 44.6936 113.694 43.904 109.912 43.904V47.904ZM117.274 49.7911C119.156 51.0092 120.535 52.56 121.457 54.4578L125.055 52.7102C123.801 50.128 121.916 48.0308 119.447 46.4329L117.274 49.7911ZM123.256 55.584H124.792V51.584H123.256V55.584ZM126.581 54.4784C127.518 52.6032 128.869 51.026 130.663 49.736L128.329 46.488C126.027 48.142 124.242 50.2128 123.003 52.6896L126.581 54.4784ZM130.64 49.7528C132.288 48.6037 134.803 47.904 138.424 47.904V43.904C134.365 43.904 130.928 44.6762 128.352 46.4712L130.64 49.7528ZM138.424 47.904C141.211 47.904 143.596 48.4824 145.633 49.5834L147.535 46.0646C144.836 44.6056 141.781 43.904 138.424 43.904V47.904ZM145.67 49.6031C147.663 50.6266 149.275 52.1922 150.506 54.3746L153.99 52.4094C152.405 49.5998 150.241 47.4534 147.498 46.0449L145.67 49.6031ZM150.517 54.3941C151.704 56.4437 152.36 59.1135 152.36 62.512H156.36C156.36 58.6145 155.608 55.2043 153.979 52.3899L150.517 54.3941ZM152.36 62.512V94H156.36V62.512H152.36ZM154.36 92H144.472V96H154.36V92ZM146.472 94V63.28H142.472V94H146.472ZM146.472 63.28C146.472 60.026 145.558 57.2301 143.457 55.2132L140.687 58.0988C141.786 59.1539 142.472 60.774 142.472 63.28H146.472ZM143.515 55.2709C141.498 53.17 138.702 52.256 135.448 52.256V56.256C137.954 56.256 139.574 56.942 140.629 58.0411L143.515 55.2709ZM135.448 52.256C131.902 52.256 128.881 53.4227 126.595 55.8657L129.517 58.5983C130.943 57.0733 132.85 56.256 135.448 56.256V52.256ZM126.595 55.8657C124.283 58.3381 123.272 61.7451 123.272 65.776H127.272C127.272 62.3829 128.117 60.0939 129.517 58.5983L126.595 55.8657ZM123.272 65.776V94H127.272V65.776H123.272ZM125.272 92H115.384V96H125.272V92ZM117.384 94V63.28H113.384V94H117.384ZM117.384 63.28C117.384 60.026 116.47 57.2301 114.369 55.2132L111.599 58.0988C112.698 59.1539 113.384 60.774 113.384 63.28H117.384ZM114.427 55.2709C112.41 53.17 109.614 52.256 106.36 52.256V56.256C108.866 56.256 110.486 56.942 111.541 58.0411L114.427 55.2709ZM106.36 52.256C102.814 52.256 99.7929 53.4227 97.5075 55.8657L100.429 58.5983C101.855 57.0733 103.762 56.256 106.36 56.256V52.256ZM97.5075 55.8657C95.1946 58.3381 94.184 61.7451 94.184 65.776H98.184C98.184 62.3829 99.0294 60.0939 100.429 58.5983L97.5075 55.8657ZM94.184 65.776V94H98.184V65.776H94.184ZM96.184 92H86.296V96H96.184V92ZM171.969 92.464L171.037 94.2338L171.043 94.2372L171.05 94.2404L171.969 92.464ZM163.233 84.112L161.502 85.1141L161.508 85.1254L161.515 85.1366L163.233 84.112ZM163.233 56.656L161.515 55.6314L161.509 55.6406L163.233 56.656ZM171.969 48.304L172.9 50.0739L172.911 50.0679L171.969 48.304ZM195.969 47.824L196.891 46.0496L196.891 46.0496L195.969 47.824ZM203.649 54.448L202.008 55.5924L202.017 55.605L202.026 55.6176L203.649 54.448ZM207.489 63.568L207.9 65.5253L209.788 65.1287L209.459 63.2269L207.489 63.568ZM197.889 65.584L195.911 65.8836L196.228 67.9763L198.3 67.5413L197.889 65.584ZM195.873 59.824L194.152 60.8436L194.152 60.8436L195.873 59.824ZM191.553 55.696L192.519 53.9448L192.519 53.9448L191.553 55.696ZM177.057 56.08L178.032 57.8259L178.04 57.8212L178.049 57.8165L177.057 56.08ZM171.873 61.456L173.621 62.4273L173.626 62.4172L173.632 62.407L171.873 61.456ZM171.873 79.312L173.632 78.361L173.632 78.361L171.873 79.312ZM177.057 84.688L176.081 86.4339L176.092 86.4399L176.102 86.4457L177.057 84.688ZM194.049 83.344L195.441 84.7792L195.452 84.7688L195.463 84.7582L194.049 83.344ZM198.177 75.088L198.625 73.1389L196.566 72.6654L196.206 74.7469L198.177 75.088ZM207.777 77.296L209.723 77.7541L210.184 75.7974L208.225 75.3469L207.777 77.296ZM203.649 86.32L202.026 85.1504L202.017 85.1629L202.008 85.1756L203.649 86.32ZM195.969 92.944L196.863 94.7329L196.877 94.7258L196.891 94.7184L195.969 92.944ZM184.353 93.344C180.1 93.344 176.291 92.4481 172.887 90.6876L171.05 94.2404C175.07 96.3199 179.517 97.344 184.353 97.344V93.344ZM172.9 90.6942C169.588 88.9509 166.944 86.4295 164.95 83.0874L161.515 85.1366C163.873 89.0905 167.053 92.1371 171.037 94.2338L172.9 90.6942ZM164.963 83.1099C163.062 79.8256 162.065 75.8034 162.065 70.96H158.065C158.065 76.3566 159.179 81.1024 161.502 85.1141L164.963 83.1099ZM162.065 70.96V69.712H158.065V70.96H162.065ZM162.065 69.712C162.065 64.8671 163.062 60.884 164.956 57.6714L161.509 55.6406C159.179 59.596 158.065 64.3169 158.065 69.712H162.065ZM164.95 57.6806C166.944 54.3385 169.588 51.8171 172.9 50.0738L171.037 46.5342C167.053 48.6309 163.873 51.6775 161.515 55.6314L164.95 57.6806ZM172.911 50.0679C176.31 48.2511 180.111 47.328 184.353 47.328V43.328C179.506 43.328 175.051 44.3889 171.026 46.5401L172.911 50.0679ZM184.353 47.328C188.657 47.328 192.195 48.1162 195.046 49.5984L196.891 46.0496C193.342 44.2038 189.136 43.328 184.353 43.328V47.328ZM195.046 49.5984C197.981 51.1249 200.287 53.1249 202.008 55.5924L205.289 53.3036C203.17 50.2671 200.356 47.8511 196.891 46.0496L195.046 49.5984ZM202.026 55.6176C203.834 58.1246 204.994 60.8815 205.518 63.9091L209.459 63.2269C208.831 59.5985 207.432 56.2754 205.271 53.2784L202.026 55.6176ZM207.077 61.6107L197.477 63.6267L198.3 67.5413L207.9 65.5253L207.077 61.6107ZM199.866 65.2844C199.51 62.9344 198.756 60.7674 197.593 58.8044L194.152 60.8436C195.037 62.3366 195.627 64.0096 195.911 65.8836L199.866 65.2844ZM197.593 58.8044C196.377 56.7525 194.669 55.1312 192.519 53.9448L190.586 57.4472C192.148 58.3088 193.32 59.4395 194.152 60.8436L197.593 58.8044ZM192.519 53.9448C190.285 52.7127 187.591 52.16 184.545 52.16V56.16C187.13 56.16 189.108 56.6313 190.586 57.4472L192.519 53.9448ZM184.545 52.16C181.468 52.16 178.627 52.8793 176.064 54.3435L178.049 57.8165C179.966 56.7207 182.117 56.16 184.545 56.16V52.16ZM176.081 54.3341C173.547 55.7501 171.559 57.8308 170.113 60.505L173.632 62.407C174.746 60.3452 176.214 58.8419 178.032 57.8259L176.081 54.3341ZM170.124 60.4847C168.641 63.154 167.953 66.3237 167.953 69.904H171.953C171.953 66.8283 172.544 64.366 173.621 62.4273L170.124 60.4847ZM167.953 69.904V70.768H171.953V69.904H167.953ZM167.953 70.768C167.953 74.3507 168.642 77.5417 170.113 80.263L173.632 78.361C172.543 76.3463 171.953 73.8413 171.953 70.768H167.953ZM170.113 80.263C171.559 82.9372 173.547 85.0179 176.081 86.4339L178.032 82.9421C176.214 81.9261 174.746 80.4228 173.632 78.361L170.113 80.263ZM176.102 86.4457C178.658 87.8332 181.487 88.512 184.545 88.512V84.512C182.098 84.512 179.935 83.9748 178.011 82.9303L176.102 86.4457ZM184.545 88.512C189.028 88.512 192.771 87.3706 195.441 84.7792L192.656 81.9088C190.974 83.5414 188.381 84.512 184.545 84.512V88.512ZM195.463 84.7582C197.959 82.262 199.508 79.1221 200.147 75.4291L196.206 74.7469C195.693 77.7099 194.49 80.074 192.634 81.9298L195.463 84.7582ZM197.728 77.0371L207.328 79.2451L208.225 75.3469L198.625 73.1389L197.728 77.0371ZM205.83 76.8379C205.123 79.8426 203.858 82.6093 202.026 85.1504L205.271 87.4896C207.407 84.5267 208.894 81.2774 209.723 77.7541L205.83 76.8379ZM202.008 85.1756C200.287 87.6431 197.981 89.6431 195.046 91.1696L196.891 94.7184C200.356 92.9169 203.17 90.5009 205.289 87.4644L202.008 85.1756ZM195.074 91.1551C192.217 92.5839 188.668 93.344 184.353 93.344V97.344C189.125 97.344 193.321 96.5041 196.863 94.7329L195.074 91.1551ZM229.645 92.848L228.516 94.4986L228.526 94.5054L228.536 94.5121L229.645 92.848ZM224.173 87.28L225.893 86.2589L225.311 85.28H224.173V87.28ZM222.637 87.28V85.28H220.637V87.28H222.637ZM222.637 94V96H224.637V94H222.637ZM212.941 94H210.941V96H212.941V94ZM212.941 26.8V24.8H210.941V26.8H212.941ZM222.829 26.8H224.829V24.8H222.829V26.8ZM222.829 53.104H220.829V55.104H222.829V53.104ZM224.365 53.104V55.104H225.497L226.08 54.133L224.365 53.104ZM227.437 49.456L228.775 50.9426L228.795 50.9246L228.815 50.906L227.437 49.456ZM232.525 46.48L231.842 44.6004L231.842 44.6004L232.525 46.48ZM251.245 48.208L252.244 46.4756L252.244 46.4756L251.245 48.208ZM259.117 84.208L257.373 83.2289L257.367 83.2394L259.117 84.208ZM251.149 92.464L250.15 90.7316L250.142 90.7358L250.135 90.7401L251.149 92.464ZM247.981 82.576L246.583 81.1456L246.575 81.1537L246.567 81.1618L247.981 82.576ZM248.077 58.192L249.491 56.7778L249.491 56.7778L248.077 58.192ZM226.861 58.192L225.463 56.7616L225.455 56.7697L225.447 56.7778L226.861 58.192ZM226.861 82.576L225.447 83.9902L225.455 83.9983L225.463 84.0064L226.861 82.576ZM240.301 93.344C235.891 93.344 232.789 92.5406 230.754 91.1839L228.536 94.5121C231.493 96.4834 235.495 97.344 240.301 97.344V93.344ZM230.774 91.1974C228.527 89.6597 226.929 88.0045 225.893 86.2589L222.453 88.3011C223.849 90.6515 225.899 92.7083 228.516 94.4986L230.774 91.1974ZM224.173 85.28H222.637V89.28H224.173V85.28ZM220.637 87.28V94H224.637V87.28H220.637ZM222.637 92H212.941V96H222.637V92ZM214.941 94V26.8H210.941V94H214.941ZM212.941 28.8H222.829V24.8H212.941V28.8ZM220.829 26.8V53.104H224.829V26.8H220.829ZM222.829 55.104H224.365V51.104H222.829V55.104ZM226.08 54.133C226.731 53.0473 227.62 51.9816 228.775 50.9426L226.099 47.9694C224.694 49.2344 223.535 50.6007 222.65 52.075L226.08 54.133ZM228.815 50.906C229.849 49.9235 231.287 49.0583 233.208 48.3596L231.842 44.6004C229.539 45.4377 227.585 46.5565 226.06 48.006L228.815 50.906ZM233.208 48.3596C235.037 47.6946 237.382 47.328 240.301 47.328V43.328C237.076 43.328 234.237 43.7294 231.842 44.6004L233.208 48.3596ZM240.301 47.328C243.93 47.328 247.232 48.2016 250.246 49.9404L252.244 46.4756C248.602 44.3744 244.608 43.328 240.301 43.328V47.328ZM250.246 49.9404C253.229 51.6613 255.633 54.1642 257.456 57.5155L260.97 55.6045C258.825 51.6598 255.917 48.5947 252.244 46.4756L250.246 49.9404ZM257.456 57.5155C259.249 60.813 260.189 64.8218 260.189 69.616H264.189C264.189 64.2982 263.145 59.603 260.97 55.6045L257.456 57.5155ZM260.189 69.616V71.056H264.189V69.616H260.189ZM260.189 71.056C260.189 75.9093 259.219 79.94 257.373 83.2289L260.861 85.1871C263.111 81.18 264.189 76.4427 264.189 71.056H260.189ZM257.367 83.2394C255.547 86.5272 253.142 89.0054 250.15 90.7316L252.148 94.1964C255.812 92.0826 258.719 89.0568 260.867 85.1766L257.367 83.2394ZM250.135 90.7401C247.193 92.4705 243.93 93.344 240.301 93.344V97.344C244.608 97.344 248.577 96.2975 252.163 94.1879L250.135 90.7401ZM237.421 88.704C242.18 88.704 246.228 87.1572 249.395 83.9902L246.567 81.1618C244.23 83.4988 241.238 84.704 237.421 84.704V88.704ZM249.379 84.0064C252.686 80.7743 254.205 76.2573 254.205 70.768H250.205C250.205 75.5187 248.908 78.8737 246.583 81.1456L249.379 84.0064ZM254.205 70.768V69.904H250.205V70.768H254.205ZM254.205 69.904C254.205 64.483 252.721 60.0075 249.491 56.7778L246.663 59.6062C248.937 61.8805 250.205 65.213 250.205 69.904H254.205ZM249.491 56.7778C246.318 53.6049 242.235 52.064 237.421 52.064V56.064C241.311 56.064 244.332 57.2751 246.663 59.6062L249.491 56.7778ZM237.421 52.064C232.716 52.064 228.682 53.6162 225.463 56.7616L228.259 59.6224C230.672 57.2638 233.678 56.064 237.421 56.064V52.064ZM225.447 56.7778C222.217 60.0075 220.733 64.483 220.733 69.904H224.733C224.733 65.213 226.001 61.8805 228.275 59.6062L225.447 56.7778ZM220.733 69.904V70.768H224.733V69.904H220.733ZM220.733 70.768C220.733 76.2447 222.213 80.7559 225.447 83.9902L228.275 81.1618C226.005 78.8921 224.733 75.5313 224.733 70.768H220.733ZM225.463 84.0064C228.682 87.1518 232.716 88.704 237.421 88.704V84.704C233.678 84.704 230.672 83.5042 228.259 81.1456L225.463 84.0064ZM268.201 94H266.201V96H268.201V94ZM268.201 26.8V24.8H266.201V26.8H268.201ZM278.089 26.8H280.089V24.8H278.089V26.8ZM278.089 94V96H280.089V94H278.089ZM270.201 94V26.8H266.201V94H270.201ZM268.201 28.8H278.089V24.8H268.201V28.8ZM276.089 26.8V94H280.089V26.8H276.089ZM278.089 92H268.201V96H278.089V92ZM292.092 93.616L291.288 95.4473L291.296 95.4508L291.304 95.4543L292.092 93.616ZM285.756 88.528L284.106 89.6591L284.117 89.6749L284.128 89.6905L285.756 88.528ZM285.756 72.304L284.144 71.1192L284.138 71.1277L285.756 72.304ZM292.188 67.408L291.452 65.5481L291.445 65.5511L291.437 65.5541L292.188 67.408ZM315.9 65.776V67.776H317.9V65.776H315.9ZM313.404 56.08L311.989 57.4942L311.989 57.4942L313.404 56.08ZM294.396 62.224L293.781 64.1272L295.866 64.8005L296.347 62.663L294.396 62.224ZM285.18 59.248L283.264 58.6733L282.701 60.5494L284.565 61.1512L285.18 59.248ZM288.828 52.336L287.28 51.0695L287.275 51.0748L288.828 52.336ZM320.316 50.032L321.646 48.5387L321.646 48.5387L320.316 50.032ZM332.316 85.744H334.316V83.744H332.316V85.744ZM332.316 94V96H334.316V94H332.316ZM319.452 92.272L320.718 90.7241L320.718 90.7241L319.452 92.272ZM317.34 87.28H319.34V85.28H317.34V87.28ZM315.9 87.28V85.28H314.7L314.135 86.3388L315.9 87.28ZM313.596 90.64L315.157 91.8894L315.157 91.8894L313.596 90.64ZM309.084 94L309.907 95.8227L309.931 95.8118L309.955 95.8003L309.084 94ZM312.252 83.824L313.606 85.2951L313.617 85.2856L313.627 85.2759L312.252 83.824ZM315.9 73.456H317.9V71.456H315.9V73.456ZM295.74 75.184L296.864 76.8379L296.886 76.8228L296.908 76.8071L295.74 75.184ZM301.212 93.344C298.047 93.344 295.282 92.8073 292.879 91.7777L291.304 95.4543C294.277 96.7287 297.592 97.344 301.212 97.344V93.344ZM292.895 91.7847C290.587 90.7712 288.765 89.3002 287.383 87.3655L284.128 89.6905C285.946 92.2358 288.348 94.1568 291.288 95.4473L292.895 91.7847ZM287.405 87.3969C286.136 85.5459 285.452 83.2379 285.452 80.368H281.452C281.452 83.8981 282.303 87.0301 284.106 89.6591L287.405 87.3969ZM285.452 80.368C285.452 77.4199 286.142 75.1732 287.373 73.4803L284.138 71.1277C282.297 73.6588 281.452 76.7881 281.452 80.368H285.452ZM287.367 73.4888C288.731 71.6333 290.567 70.2215 292.938 69.2619L291.437 65.5541C288.432 66.7705 285.98 68.6227 284.144 71.1192L287.367 73.4888ZM292.923 69.2679C295.405 68.2866 298.254 67.776 301.5 67.776V63.776C297.833 63.776 294.474 64.3534 291.452 65.5481L292.923 69.2679ZM301.5 67.776H315.9V63.776H301.5V67.776ZM317.9 65.776V62.704H313.9V65.776H317.9ZM317.9 62.704C317.9 59.5185 316.92 56.7683 314.818 54.6658L311.989 57.4942C313.215 58.7197 313.9 60.3855 313.9 62.704H317.9ZM314.818 54.6658C312.634 52.4819 309.462 51.584 305.724 51.584V55.584C308.897 55.584 310.845 56.3501 311.989 57.4942L314.818 54.6658ZM305.724 51.584C302.042 51.584 298.901 52.4518 296.615 54.4921L299.28 57.4759C300.578 56.3162 302.621 55.584 305.724 55.584V51.584ZM296.615 54.4921C294.483 56.3957 293.103 58.8575 292.444 61.785L296.347 62.663C296.84 60.4705 297.828 58.7723 299.28 57.4759L296.615 54.4921ZM295.01 60.3208L285.794 57.3448L284.565 61.1512L293.781 64.1272L295.01 60.3208ZM287.095 59.8227C287.789 57.5098 288.883 55.4396 290.38 53.5972L287.275 51.0748C285.444 53.3284 284.106 55.8662 283.264 58.6733L287.095 59.8227ZM290.375 53.6025C291.885 51.758 293.897 50.2388 296.471 49.0687L294.816 45.4273C291.758 46.8172 289.227 48.69 287.28 51.0695L290.375 53.6025ZM296.471 49.0687C298.965 47.9353 302.059 47.328 305.82 47.328V43.328C301.644 43.328 297.954 44.0007 294.816 45.4273L296.471 49.0687ZM305.82 47.328C311.625 47.328 315.931 48.8045 318.985 51.5253L321.646 48.5387C317.66 44.9875 312.302 43.328 305.82 43.328V47.328ZM318.985 51.5253C321.986 54.1992 323.596 58.0493 323.596 63.376H327.596C327.596 57.1827 325.685 52.1368 321.646 48.5387L318.985 51.5253ZM323.596 63.376V82.864H327.596V63.376H323.596ZM323.596 82.864C323.596 84.0993 323.881 85.3982 324.805 86.3886C325.754 87.4051 327.043 87.744 328.284 87.744V83.744C327.733 83.744 327.677 83.6029 327.73 83.6594C327.758 83.6898 327.596 83.5487 327.596 82.864H323.596ZM328.284 87.744H332.316V83.744H328.284V87.744ZM330.316 85.744V94H334.316V85.744H330.316ZM332.316 92H324.924V96H332.316V92ZM324.924 92C323.035 92 321.692 91.5209 320.718 90.7241L318.185 93.8199C320.027 95.3271 322.332 96 324.924 96V92ZM320.718 90.7241C319.82 89.9895 319.34 89.014 319.34 87.568H315.34C315.34 90.09 316.267 92.2505 318.185 93.8199L320.718 90.7241ZM319.34 87.568V87.28H315.34V87.568H319.34ZM317.34 85.28H315.9V89.28H317.34V85.28ZM314.135 86.3388C313.702 87.1503 313.015 88.1638 312.034 89.3906L315.157 91.8894C316.224 90.5562 317.073 89.3297 317.664 88.2212L314.135 86.3388ZM312.034 89.3906C311.249 90.372 310.016 91.327 308.212 92.1997L309.955 95.8003C312.119 94.753 313.894 93.468 315.157 91.8894L312.034 89.3906ZM308.26 92.1773C306.631 92.913 304.321 93.344 301.212 93.344V97.344C304.63 97.344 307.568 96.879 309.907 95.8227L308.26 92.1773ZM302.652 89.184C307.015 89.184 310.734 87.9409 313.606 85.2951L310.897 82.3529C308.905 84.1871 306.224 85.184 302.652 85.184V89.184ZM313.627 85.2759C316.531 82.5248 317.9 78.8234 317.9 74.416H313.9C313.9 77.9446 312.836 80.5152 310.876 82.3721L313.627 85.2759ZM317.9 74.416V73.456H313.9V74.416H317.9ZM315.9 71.456H302.076V75.456H315.9V71.456ZM302.076 71.456C299.169 71.456 296.608 72.0943 294.571 73.5609L296.908 76.8071C298.071 75.9697 299.734 75.456 302.076 75.456V71.456ZM294.615 73.5301C292.392 75.0416 291.34 77.3382 291.34 80.08H295.34C295.34 78.4698 295.887 77.5024 296.864 76.8379L294.615 73.5301ZM291.34 80.08C291.34 82.8505 292.439 85.1748 294.616 86.8492L297.055 83.6788C295.904 82.7932 295.34 81.6615 295.34 80.08H291.34ZM294.616 86.8492C296.739 88.4825 299.492 89.184 302.652 89.184V85.184C300.051 85.184 298.26 84.6055 297.055 83.6788L294.616 86.8492ZM344.165 92.464L343.233 94.2338L343.24 94.2372L343.246 94.2404L344.165 92.464ZM335.429 84.112L333.698 85.1141L333.704 85.1254L333.711 85.1366L335.429 84.112ZM335.429 56.656L333.711 55.6314L333.706 55.6406L335.429 56.656ZM344.165 48.304L345.096 50.0739L345.108 50.0679L344.165 48.304ZM368.165 47.824L369.087 46.0496L369.087 46.0496L368.165 47.824ZM375.845 54.448L374.205 55.5924L374.213 55.605L374.222 55.6176L375.845 54.448ZM379.685 63.568L380.096 65.5253L381.985 65.1287L381.655 63.2269L379.685 63.568ZM370.085 65.584L368.107 65.8836L368.424 67.9763L370.496 67.5413L370.085 65.584ZM368.069 59.824L366.348 60.8436L366.348 60.8436L368.069 59.824ZM363.749 55.696L364.715 53.9448L364.715 53.9448L363.749 55.696ZM349.253 56.08L350.228 57.8259L350.237 57.8212L350.245 57.8165L349.253 56.08ZM344.069 61.456L345.817 62.4273L345.823 62.4172L345.828 62.407L344.069 61.456ZM344.069 79.312L345.828 78.361L345.828 78.361L344.069 79.312ZM349.253 84.688L348.277 86.4339L348.288 86.4399L348.299 86.4457L349.253 84.688ZM366.245 83.344L367.638 84.7792L367.648 84.7688L367.659 84.7582L366.245 83.344ZM370.373 75.088L370.821 73.1389L368.762 72.6654L368.402 74.7469L370.373 75.088ZM379.973 77.296L381.92 77.7541L382.38 75.7974L380.421 75.3469L379.973 77.296ZM375.845 86.32L374.222 85.1504L374.213 85.1629L374.205 85.1756L375.845 86.32ZM368.165 92.944L369.059 94.7329L369.073 94.7258L369.087 94.7184L368.165 92.944ZM356.549 93.344C352.296 93.344 348.487 92.4481 345.084 90.6876L343.246 94.2404C347.266 96.3199 351.714 97.344 356.549 97.344V93.344ZM345.096 90.6942C341.784 88.9509 339.14 86.4295 337.146 83.0874L333.711 85.1366C336.07 89.0905 339.249 92.1371 343.233 94.2338L345.096 90.6942ZM337.16 83.1099C335.258 79.8256 334.261 75.8034 334.261 70.96H330.261C330.261 76.3566 331.375 81.1024 333.698 85.1141L337.16 83.1099ZM334.261 70.96V69.712H330.261V70.96H334.261ZM334.261 69.712C334.261 64.8671 335.259 60.884 337.152 57.6714L333.706 55.6406C331.375 59.596 330.261 64.3169 330.261 69.712H334.261ZM337.146 57.6806C339.14 54.3385 341.784 51.8171 345.096 50.0738L343.233 46.5342C339.249 48.6309 336.07 51.6775 333.711 55.6314L337.146 57.6806ZM345.108 50.0679C348.507 48.2511 352.307 47.328 356.549 47.328V43.328C351.703 43.328 347.247 44.3889 343.222 46.5401L345.108 50.0679ZM356.549 47.328C360.853 47.328 364.392 48.1162 367.242 49.5984L369.087 46.0496C365.538 44.2038 361.332 43.328 356.549 43.328V47.328ZM367.242 49.5984C370.177 51.1249 372.483 53.1249 374.205 55.5924L377.485 53.3036C375.367 50.2671 372.552 47.8511 369.087 46.0496L367.242 49.5984ZM374.222 55.6176C376.03 58.1246 377.19 60.8815 377.714 63.9091L381.655 63.2269C381.027 59.5985 379.628 56.2754 377.467 53.2784L374.222 55.6176ZM379.274 61.6107L369.674 63.6267L370.496 67.5413L380.096 65.5253L379.274 61.6107ZM372.062 65.2844C371.706 62.9344 370.953 60.7674 369.789 58.8044L366.348 60.8436C367.233 62.3366 367.823 64.0096 368.107 65.8836L372.062 65.2844ZM369.789 58.8044C368.573 56.7525 366.865 55.1312 364.715 53.9448L362.783 57.4472C364.344 58.3088 365.516 59.4395 366.348 60.8436L369.789 58.8044ZM364.715 53.9448C362.482 52.7127 359.788 52.16 356.741 52.16V56.16C359.326 56.16 361.304 56.6313 362.783 57.4472L364.715 53.9448ZM356.741 52.16C353.665 52.16 350.823 52.8793 348.26 54.3435L350.245 57.8165C352.163 56.7207 354.313 56.16 356.741 56.16V52.16ZM348.277 54.3341C345.743 55.7501 343.755 57.8308 342.309 60.505L345.828 62.407C346.943 60.3452 348.41 58.8419 350.228 57.8259L348.277 54.3341ZM342.32 60.4847C340.837 63.154 340.149 66.3237 340.149 69.904H344.149C344.149 66.8283 344.74 64.366 345.817 62.4273L342.32 60.4847ZM340.149 69.904V70.768H344.149V69.904H340.149ZM340.149 70.768C340.149 74.3507 340.838 77.5417 342.309 80.263L345.828 78.361C344.739 76.3463 344.149 73.8413 344.149 70.768H340.149ZM342.309 80.263C343.755 82.9372 345.743 85.0179 348.277 86.4339L350.228 82.9421C348.41 81.9261 346.943 80.4228 345.828 78.361L342.309 80.263ZM348.299 86.4457C350.855 87.8332 353.683 88.512 356.741 88.512V84.512C354.295 84.512 352.131 83.9748 350.207 82.9303L348.299 86.4457ZM356.741 88.512C361.224 88.512 364.968 87.3706 367.638 84.7792L364.852 81.9088C363.17 83.5414 360.578 84.512 356.741 84.512V88.512ZM367.659 84.7582C370.155 82.262 371.704 79.1221 372.343 75.4291L368.402 74.7469C367.889 77.7099 366.686 80.074 364.831 81.9298L367.659 84.7582ZM369.924 77.0371L379.524 79.2451L380.421 75.3469L370.821 73.1389L369.924 77.0371ZM378.026 76.8379C377.319 79.8426 376.054 82.6093 374.222 85.1504L377.467 87.4896C379.603 84.5267 381.091 81.2774 381.92 77.7541L378.026 76.8379ZM374.205 85.1756C372.483 87.6431 370.178 89.6431 367.242 91.1696L369.087 94.7184C372.552 92.9169 375.367 90.5009 377.485 87.4644L374.205 85.1756ZM367.27 91.1551C364.413 92.5839 360.864 93.344 356.549 93.344V97.344C361.322 97.344 365.517 96.5041 369.059 94.7329L367.27 91.1551ZM394.737 92.464L393.806 94.2338L393.812 94.2372L393.818 94.2404L394.737 92.464ZM386.001 84.112L384.27 85.1141L384.277 85.1254L384.284 85.1366L386.001 84.112ZM386.001 56.656L384.284 55.6314L384.278 55.6406L386.001 56.656ZM394.737 48.304L395.669 50.0739L395.68 50.0679L394.737 48.304ZM418.737 47.824L419.66 46.0496L419.66 46.0496L418.737 47.824ZM426.417 54.448L424.777 55.5924L424.786 55.605L424.795 55.6176L426.417 54.448ZM430.257 63.568L430.668 65.5253L432.557 65.1287L432.228 63.2269L430.257 63.568ZM420.657 65.584L418.68 65.8836L418.997 67.9763L421.068 67.5413L420.657 65.584ZM418.641 59.824L416.921 60.8436L416.921 60.8436L418.641 59.824ZM414.321 55.696L415.287 53.9448L415.287 53.9448L414.321 55.696ZM399.825 56.08L400.801 57.8259L400.809 57.8212L400.818 57.8165L399.825 56.08ZM394.641 61.456L396.39 62.4273L396.395 62.4172L396.401 62.407L394.641 61.456ZM394.641 79.312L396.401 78.361L396.401 78.361L394.641 79.312ZM399.825 84.688L398.85 86.4339L398.86 86.4399L398.871 86.4457L399.825 84.688ZM416.817 83.344L418.21 84.7792L418.221 84.7688L418.231 84.7582L416.817 83.344ZM420.945 75.088L421.394 73.1389L419.335 72.6654L418.975 74.7469L420.945 75.088ZM430.545 77.296L432.492 77.7541L432.952 75.7974L430.994 75.3469L430.545 77.296ZM426.417 86.32L424.795 85.1504L424.786 85.1629L424.777 85.1756L426.417 86.32ZM418.737 92.944L419.632 94.7329L419.646 94.7258L419.66 94.7184L418.737 92.944ZM407.121 93.344C402.868 93.344 399.06 92.4481 395.656 90.6876L393.818 94.2404C397.839 96.3199 402.286 97.344 407.121 97.344V93.344ZM395.669 90.6942C392.357 88.9509 389.712 86.4295 387.719 83.0874L384.284 85.1366C386.642 89.0905 389.822 92.1371 393.806 94.2338L395.669 90.6942ZM387.732 83.1099C385.831 79.8256 384.833 75.8034 384.833 70.96H380.833C380.833 76.3566 381.948 81.1024 384.27 85.1141L387.732 83.1099ZM384.833 70.96V69.712H380.833V70.96H384.833ZM384.833 69.712C384.833 64.8671 385.831 60.884 387.724 57.6714L384.278 55.6406C381.947 59.596 380.833 64.3169 380.833 69.712H384.833ZM387.719 57.6806C389.712 54.3385 392.357 51.8171 395.669 50.0738L393.806 46.5342C389.822 48.6309 386.642 51.6775 384.284 55.6314L387.719 57.6806ZM395.68 50.0679C399.079 48.2511 402.879 47.328 407.121 47.328V43.328C402.275 43.328 397.819 44.3889 393.794 46.5401L395.68 50.0679ZM407.121 47.328C411.426 47.328 414.964 48.1162 417.815 49.5984L419.66 46.0496C416.11 44.2038 411.905 43.328 407.121 43.328V47.328ZM417.815 49.5984C420.75 51.1249 423.055 53.1249 424.777 55.5924L428.058 53.3036C425.939 50.2671 423.125 47.8511 419.66 46.0496L417.815 49.5984ZM424.795 55.6176C426.602 58.1246 427.763 60.8815 428.287 63.9091L432.228 63.2269C431.6 59.5985 430.2 56.2754 428.04 53.2784L424.795 55.6176ZM429.846 61.6107L420.246 63.6267L421.068 67.5413L430.668 65.5253L429.846 61.6107ZM422.635 65.2844C422.279 62.9344 421.525 60.7674 420.362 58.8044L416.921 60.8436C417.805 62.3366 418.396 64.0096 418.68 65.8836L422.635 65.2844ZM420.362 58.8044C419.146 56.7525 417.438 55.1312 415.287 53.9448L413.355 57.4472C414.917 58.3088 416.089 59.4395 416.921 60.8436L420.362 58.8044ZM415.287 53.9448C413.054 52.7127 410.36 52.16 407.313 52.16V56.16C409.898 56.16 411.876 56.6313 413.355 57.4472L415.287 53.9448ZM407.313 52.16C404.237 52.16 401.395 52.8793 398.833 54.3435L400.818 57.8165C402.735 56.7207 404.885 56.16 407.313 56.16V52.16ZM398.85 54.3341C396.316 55.7501 394.327 57.8308 392.882 60.505L396.401 62.407C397.515 60.3452 398.983 58.8419 400.801 57.8259L398.85 54.3341ZM392.893 60.4847C391.41 63.154 390.721 66.3237 390.721 69.904H394.721C394.721 66.8283 395.313 64.366 396.39 62.4273L392.893 60.4847ZM390.721 69.904V70.768H394.721V69.904H390.721ZM390.721 70.768C390.721 74.3507 391.411 77.5417 392.882 80.263L396.401 78.361C395.312 76.3463 394.721 73.8413 394.721 70.768H390.721ZM392.882 80.263C394.327 82.9372 396.316 85.0179 398.85 86.4339L400.801 82.9421C398.983 81.9261 397.515 80.4228 396.401 78.361L392.882 80.263ZM398.871 86.4457C401.427 87.8332 404.255 88.512 407.313 88.512V84.512C404.867 84.512 402.703 83.9748 400.779 82.9303L398.871 86.4457ZM407.313 88.512C411.796 88.512 415.54 87.3706 418.21 84.7792L415.424 81.9088C413.742 83.5414 411.15 84.512 407.313 84.512V88.512ZM418.231 84.7582C420.728 82.262 422.277 79.1221 422.916 75.4291L418.975 74.7469C418.462 77.7099 417.259 80.074 415.403 81.9298L418.231 84.7582ZM420.497 77.0371L430.097 79.2451L430.994 75.3469L421.394 73.1389L420.497 77.0371ZM428.598 76.8379C427.891 79.8426 426.627 82.6093 424.795 85.1504L428.04 87.4896C430.176 84.5267 431.663 81.2774 432.492 77.7541L428.598 76.8379ZM424.777 85.1756C423.055 87.6431 420.75 89.6431 417.815 91.1696L419.66 94.7184C423.125 92.9169 425.939 90.5009 428.058 87.4644L424.777 85.1756ZM417.843 91.1551C414.985 92.5839 411.436 93.344 407.121 93.344V97.344C411.894 97.344 416.089 96.5041 419.632 94.7329L417.843 91.1551Z" fill="white"/>
</g>
</g>
<g id="Group 1" style="mix-blend-mode:difference">
<rect id="Rectangle 5" x="28.6765" y="43.0294" width="8.60294" height="57.353" rx="4.30147" transform="rotate(30 28.6765 43.0294)" fill="white"/>
<rect id="Rectangle 8" x="58.3692" y="65.1105" width="8.60294" height="31.8559" rx="4.30147" transform="rotate(30 58.3692 65.1105)" fill="white"/>
<rect id="Rectangle 6" x="47.319" y="43" width="8.60294" height="57.353" rx="4.30147" transform="rotate(30 47.319 43)" fill="white"/>
<rect id="Rectangle 7" x="43.3043" y="47.3015" width="8.60294" height="57.353" rx="4.30147" transform="rotate(-30 43.3043 47.3015)" fill="white"/>
</g>
<circle id="Ellipse 1" cx="445" cy="87" r="10" fill="white"/>
</g>
</svg>
