<svg width="394" height="122" viewBox="0 0 394 122" fill="none" xmlns="http://www.w3.org/2000/svg">
<g id=".blaccdot">
<path d="M13.248 95.344C11.008 95.344 9.12 94.608 7.584 93.136C6.112 91.664 5.376 89.776 5.376 87.472C5.376 85.168 6.112 83.312 7.584 81.904C9.12 80.432 11.008 79.696 13.248 79.696C15.488 79.696 17.344 80.432 18.816 81.904C20.352 83.376 21.12 85.232 21.12 87.472C21.12 89.776 20.352 91.664 18.816 93.136C17.344 94.608 15.488 95.344 13.248 95.344ZM54.9473 95.344C50.3393 95.344 46.7873 94.512 44.2913 92.848C41.8593 91.184 40.0353 89.328 38.8193 87.28H37.2833V94H27.5873V26.8H37.4753V53.104H39.0113C39.7793 51.824 40.8033 50.608 42.0833 49.456C43.3633 48.24 45.0593 47.248 47.1713 46.48C49.2833 45.712 51.8753 45.328 54.9473 45.328C58.9153 45.328 62.5633 46.288 65.8913 48.208C69.2193 50.128 71.8753 52.912 73.8593 56.56C75.8433 60.208 76.8353 64.56 76.8353 69.616V71.056C76.8353 76.176 75.8113 80.56 73.7633 84.208C71.7793 87.792 69.1233 90.544 65.7953 92.464C62.5313 94.384 58.9153 95.344 54.9473 95.344ZM52.0673 86.704C56.3553 86.704 59.8753 85.328 62.6273 82.576C65.4433 79.824 66.8513 75.888 66.8513 70.768V69.904C66.8513 64.848 65.4753 60.944 62.7233 58.192C59.9713 55.44 56.4193 54.064 52.0673 54.064C47.8433 54.064 44.3233 55.44 41.5073 58.192C38.7553 60.944 37.3793 64.848 37.3793 69.904V70.768C37.3793 75.888 38.7553 79.824 41.5073 82.576C44.3233 85.328 47.8433 86.704 52.0673 86.704ZM82.8473 94V26.8H92.7353V94H82.8473ZM115.858 95.344C112.466 95.344 109.426 94.768 106.738 93.616C104.114 92.464 102.002 90.768 100.402 88.528C98.8657 86.288 98.0977 83.568 98.0977 80.368C98.0977 77.104 98.8657 74.416 100.402 72.304C102.002 70.128 104.146 68.496 106.834 67.408C109.586 66.32 112.69 65.776 116.146 65.776H130.546V62.704C130.546 59.952 129.714 57.744 128.05 56.08C126.386 54.416 123.826 53.584 120.37 53.584C116.978 53.584 114.386 54.384 112.594 55.984C110.802 57.584 109.618 59.664 109.042 62.224L99.8257 59.248C100.594 56.688 101.81 54.384 103.474 52.336C105.202 50.224 107.474 48.528 110.29 47.248C113.106 45.968 116.498 45.328 120.466 45.328C126.61 45.328 131.442 46.896 134.962 50.032C138.482 53.168 140.242 57.616 140.242 63.376V82.864C140.242 84.784 141.138 85.744 142.93 85.744H146.962V94H139.57C137.33 94 135.506 93.424 134.098 92.272C132.69 91.12 131.986 89.552 131.986 87.568V87.28H130.546C130.034 88.24 129.266 89.36 128.242 90.64C127.218 91.92 125.714 93.04 123.73 94C121.746 94.896 119.122 95.344 115.858 95.344ZM117.298 87.184C121.266 87.184 124.466 86.064 126.898 83.824C129.33 81.52 130.546 78.384 130.546 74.416V73.456H116.722C114.098 73.456 111.986 74.032 110.386 75.184C108.786 76.272 107.986 77.904 107.986 80.08C107.986 82.256 108.818 83.984 110.482 85.264C112.146 86.544 114.418 87.184 117.298 87.184ZM171.195 95.344C166.651 95.344 162.523 94.384 158.811 92.464C155.163 90.544 152.251 87.76 150.075 84.112C147.963 80.464 146.907 76.08 146.907 70.96V69.712C146.907 64.592 147.963 60.24 150.075 56.656C152.251 53.008 155.163 50.224 158.811 48.304C162.523 46.32 166.651 45.328 171.195 45.328C175.739 45.328 179.611 46.16 182.811 47.824C186.011 49.488 188.571 51.696 190.491 54.448C192.475 57.2 193.755 60.24 194.331 63.568L184.731 65.584C184.411 63.472 183.739 61.552 182.715 59.824C181.691 58.096 180.251 56.72 178.395 55.696C176.539 54.672 174.203 54.16 171.387 54.16C168.635 54.16 166.139 54.8 163.899 56.08C161.723 57.296 159.995 59.088 158.715 61.456C157.435 63.76 156.795 66.576 156.795 69.904V70.768C156.795 74.096 157.435 76.944 158.715 79.312C159.995 81.68 161.723 83.472 163.899 84.688C166.139 85.904 168.635 86.512 171.387 86.512C175.547 86.512 178.715 85.456 180.891 83.344C183.067 81.168 184.443 78.416 185.019 75.088L194.619 77.296C193.851 80.56 192.475 83.568 190.491 86.32C188.571 89.072 186.011 91.28 182.811 92.944C179.611 94.544 175.739 95.344 171.195 95.344ZM221.768 95.344C217.224 95.344 213.096 94.384 209.384 92.464C205.736 90.544 202.824 87.76 200.648 84.112C198.536 80.464 197.48 76.08 197.48 70.96V69.712C197.48 64.592 198.536 60.24 200.648 56.656C202.824 53.008 205.736 50.224 209.384 48.304C213.096 46.32 217.224 45.328 221.768 45.328C226.312 45.328 230.184 46.16 233.384 47.824C236.584 49.488 239.144 51.696 241.064 54.448C243.048 57.2 244.328 60.24 244.904 63.568L235.304 65.584C234.984 63.472 234.312 61.552 233.288 59.824C232.264 58.096 230.824 56.72 228.968 55.696C227.112 54.672 224.776 54.16 221.96 54.16C219.208 54.16 216.712 54.8 214.472 56.08C212.296 57.296 210.568 59.088 209.288 61.456C208.008 63.76 207.368 66.576 207.368 69.904V70.768C207.368 74.096 208.008 76.944 209.288 79.312C210.568 81.68 212.296 83.472 214.472 84.688C216.712 85.904 219.208 86.512 221.96 86.512C226.12 86.512 229.288 85.456 231.464 83.344C233.64 81.168 235.016 78.416 235.592 75.088L245.192 77.296C244.424 80.56 243.048 83.568 241.064 86.32C239.144 89.072 236.584 91.28 233.384 92.944C230.184 94.544 226.312 95.344 221.768 95.344ZM269.94 95.344C266.036 95.344 262.42 94.384 259.092 92.464C255.764 90.544 253.076 87.792 251.028 84.208C249.044 80.56 248.052 76.176 248.052 71.056V69.616C248.052 64.56 249.044 60.208 251.028 56.56C253.012 52.912 255.668 50.128 258.996 48.208C262.324 46.288 265.972 45.328 269.94 45.328C273.012 45.328 275.572 45.712 277.62 46.48C279.732 47.248 281.46 48.24 282.804 49.456C284.148 50.608 285.172 51.824 285.876 53.104H287.412V26.8H297.3V94H287.604V87.28H286.068C284.852 89.328 282.996 91.184 280.5 92.848C278.068 94.512 274.548 95.344 269.94 95.344ZM272.724 86.704C277.012 86.704 280.532 85.328 283.284 82.576C286.1 79.824 287.508 75.888 287.508 70.768V69.904C287.508 64.848 286.132 60.944 283.38 58.192C280.628 55.44 277.076 54.064 272.724 54.064C268.5 54.064 264.98 55.44 262.164 58.192C259.412 60.944 258.036 64.848 258.036 69.904V70.768C258.036 75.888 259.412 79.824 262.164 82.576C264.98 85.328 268.5 86.704 272.724 86.704ZM327.792 95.344C323.056 95.344 318.832 94.384 315.12 92.464C311.472 90.48 308.592 87.664 306.48 84.016C304.368 80.368 303.312 76.048 303.312 71.056V69.616C303.312 64.624 304.368 60.336 306.48 56.752C308.592 53.104 311.472 50.288 315.12 48.304C318.832 46.32 323.056 45.328 327.792 45.328C332.528 45.328 336.752 46.32 340.464 48.304C344.176 50.288 347.088 53.104 349.2 56.752C351.312 60.336 352.368 64.624 352.368 69.616V71.056C352.368 76.048 351.312 80.368 349.2 84.016C347.088 87.664 344.176 90.48 340.464 92.464C336.752 94.384 332.528 95.344 327.792 95.344ZM327.792 86.512C332.144 86.512 335.664 85.136 338.352 82.384C341.104 79.568 342.48 75.696 342.48 70.768V69.904C342.48 64.976 341.136 61.136 338.448 58.384C335.76 55.568 332.208 54.16 327.792 54.16C323.504 54.16 319.984 55.568 317.232 58.384C314.544 61.136 313.2 64.976 313.2 69.904V70.768C313.2 75.696 314.544 79.568 317.232 82.384C319.984 85.136 323.504 86.512 327.792 86.512ZM374.511 94C371.631 94 369.327 93.136 367.599 91.408C365.935 89.68 365.103 87.376 365.103 84.496V55.024H352.047V46.672H365.103V31.024H374.991V46.672H389.103V55.024H374.991V82.768C374.991 84.688 375.887 85.648 377.679 85.648H387.567V94H374.511Z" fill="white"/>
<path d="M7.584 93.136L6.16979 94.5502L6.18483 94.5653L6.20019 94.58L7.584 93.136ZM7.584 81.904L8.96645 83.3493L8.96781 83.348L7.584 81.904ZM18.816 81.904L17.4018 83.3182L17.4168 83.3333L17.4322 83.348L18.816 81.904ZM18.816 93.136L17.4322 91.692L17.4168 91.7067L17.4018 91.7218L18.816 93.136ZM13.248 93.344C11.4936 93.344 10.1103 92.7869 8.96781 91.692L6.20019 94.58C8.12973 96.4291 10.5224 97.344 13.248 97.344V93.344ZM8.99821 91.7218C7.94304 90.6666 7.376 89.3077 7.376 87.472H3.376C3.376 90.2443 4.28096 92.6614 6.16979 94.5502L8.99821 91.7218ZM7.376 87.472C7.376 85.6353 7.94227 84.3289 8.96645 83.3493L6.20156 80.4587C4.28173 82.2951 3.376 84.7007 3.376 87.472H7.376ZM8.96781 83.348C10.1103 82.2531 11.4936 81.696 13.248 81.696V77.696C10.5224 77.696 8.12973 78.6109 6.20019 80.46L8.96781 83.348ZM13.248 81.696C15.0022 81.696 16.3353 82.2517 17.4018 83.3182L20.2302 80.4898C18.3528 78.6123 15.9739 77.696 13.248 77.696V81.696ZM17.4322 83.348C18.5518 84.421 19.12 85.7449 19.12 87.472H23.12C23.12 84.7191 22.1522 82.331 20.1998 80.46L17.4322 83.348ZM19.12 87.472C19.12 89.2811 18.5397 90.6307 17.4322 91.692L20.1998 94.58C22.1643 92.6973 23.12 90.2709 23.12 87.472H19.12ZM17.4018 91.7218C16.3353 92.7883 15.0022 93.344 13.248 93.344V97.344C15.9739 97.344 18.3528 96.4277 20.2302 94.5502L17.4018 91.7218ZM44.2913 92.848L43.1619 94.4986L43.1718 94.5054L43.1818 94.5121L44.2913 92.848ZM38.8193 87.28L40.539 86.2589L39.9577 85.28H38.8193V87.28ZM37.2833 87.28V85.28H35.2833V87.28H37.2833ZM37.2833 94V96H39.2833V94H37.2833ZM27.5873 94H25.5873V96H27.5873V94ZM27.5873 26.8V24.8H25.5873V26.8H27.5873ZM37.4753 26.8H39.4753V24.8H37.4753V26.8ZM37.4753 53.104H35.4753V55.104H37.4753V53.104ZM39.0113 53.104V55.104H40.1436L40.7262 54.133L39.0113 53.104ZM42.0833 49.456L43.4212 50.9426L43.4412 50.9246L43.4608 50.906L42.0833 49.456ZM47.1713 46.48L46.4878 44.6004L46.4878 44.6004L47.1713 46.48ZM65.8913 48.208L66.8907 46.4756L66.8907 46.4756L65.8913 48.208ZM73.7633 84.208L72.0193 83.2289L72.0135 83.2394L73.7633 84.208ZM65.7953 92.464L64.7958 90.7316L64.7885 90.7358L64.7812 90.7401L65.7953 92.464ZM62.6273 82.576L61.2294 81.1456L61.2212 81.1537L61.213 81.1618L62.6273 82.576ZM62.7233 58.192L64.1375 56.7778L64.1375 56.7778L62.7233 58.192ZM41.5073 58.192L40.1094 56.7616L40.1012 56.7697L40.093 56.7778L41.5073 58.192ZM41.5073 82.576L40.093 83.9902L40.1012 83.9983L40.1094 84.0064L41.5073 82.576ZM54.9473 93.344C50.5374 93.344 47.4357 92.5406 45.4007 91.1839L43.1818 94.5121C46.1388 96.4834 50.1412 97.344 54.9473 97.344V93.344ZM45.4206 91.1974C43.1733 89.6597 41.5754 88.0045 40.539 86.2589L37.0995 88.3011C38.4951 90.6515 40.5452 92.7083 43.1619 94.4986L45.4206 91.1974ZM38.8193 85.28H37.2833V89.28H38.8193V85.28ZM35.2833 87.28V94H39.2833V87.28H35.2833ZM37.2833 92H27.5873V96H37.2833V92ZM29.5873 94V26.8H25.5873V94H29.5873ZM27.5873 28.8H37.4753V24.8H27.5873V28.8ZM35.4753 26.8V53.104H39.4753V26.8H35.4753ZM37.4753 55.104H39.0113V51.104H37.4753V55.104ZM40.7262 54.133C41.3777 53.0473 42.2667 51.9816 43.4212 50.9426L40.7453 47.9694C39.3398 49.2344 38.1808 50.6007 37.2963 52.075L40.7262 54.133ZM43.4608 50.906C44.495 49.9235 45.9333 49.0583 47.8547 48.3596L46.4878 44.6004C44.1852 45.4377 42.2315 46.5565 40.7058 48.006L43.4608 50.906ZM47.8547 48.3596C49.6836 47.6946 52.0287 47.328 54.9473 47.328V43.328C51.7218 43.328 48.8829 43.7294 46.4878 44.6004L47.8547 48.3596ZM54.9473 47.328C58.5764 47.328 61.8779 48.2016 64.8918 49.9404L66.8907 46.4756C63.2486 44.3744 59.2541 43.328 54.9473 43.328V47.328ZM64.8918 49.9404C67.8748 51.6613 70.2796 54.1642 72.1023 57.5155L75.6162 55.6045C73.4709 51.6598 70.5637 48.5947 66.8907 46.4756L64.8918 49.9404ZM72.1023 57.5155C73.8956 60.813 74.8353 64.8218 74.8353 69.616H78.8353C78.8353 64.2982 77.7909 59.603 75.6162 55.6045L72.1023 57.5155ZM74.8353 69.616V71.056H78.8353V69.616H74.8353ZM74.8353 71.056C74.8353 75.9093 73.8657 79.94 72.0193 83.2289L75.5072 85.1871C77.7568 81.18 78.8353 76.4427 78.8353 71.056H74.8353ZM72.0135 83.2394C70.1934 86.5272 67.7879 89.0054 64.7958 90.7316L66.7947 94.1964C70.4586 92.0826 73.3651 89.0568 75.513 85.1766L72.0135 83.2394ZM64.7812 90.7401C61.8395 92.4705 58.5765 93.344 54.9473 93.344V97.344C59.2541 97.344 63.223 96.2975 66.8093 94.1879L64.7812 90.7401ZM52.0673 88.704C56.8264 88.704 60.8745 87.1572 64.0415 83.9902L61.213 81.1618C58.876 83.4988 55.8841 84.704 52.0673 84.704V88.704ZM64.0251 84.0064C67.3323 80.7743 68.8513 76.2573 68.8513 70.768H64.8513C64.8513 75.5187 63.5542 78.8737 61.2294 81.1456L64.0251 84.0064ZM68.8513 70.768V69.904H64.8513V70.768H68.8513ZM68.8513 69.904C68.8513 64.483 67.3672 60.0075 64.1375 56.7778L61.309 59.6062C63.5833 61.8805 64.8513 65.213 64.8513 69.904H68.8513ZM64.1375 56.7778C60.9645 53.6049 56.8811 52.064 52.0673 52.064V56.064C55.9574 56.064 58.978 57.2751 61.309 59.6062L64.1375 56.7778ZM52.0673 52.064C47.3627 52.064 43.328 53.6162 40.1094 56.7616L42.9051 59.6224C45.3185 57.2638 48.3238 56.064 52.0673 56.064V52.064ZM40.093 56.7778C36.8633 60.0075 35.3793 64.483 35.3793 69.904H39.3793C39.3793 65.213 40.6472 61.8805 42.9215 59.6062L40.093 56.7778ZM35.3793 69.904V70.768H39.3793V69.904H35.3793ZM35.3793 70.768C35.3793 76.2447 36.8588 80.7559 40.093 83.9902L42.9215 81.1618C40.6517 78.8921 39.3793 75.5313 39.3793 70.768H35.3793ZM40.1094 84.0064C43.328 87.1518 47.3627 88.704 52.0673 88.704V84.704C48.3238 84.704 45.3185 83.5042 42.9051 81.1456L40.1094 84.0064ZM82.8473 94H80.8473V96H82.8473V94ZM82.8473 26.8V24.8H80.8473V26.8H82.8473ZM92.7353 26.8H94.7353V24.8H92.7353V26.8ZM92.7353 94V96H94.7353V94H92.7353ZM84.8473 94V26.8H80.8473V94H84.8473ZM82.8473 28.8H92.7353V24.8H82.8473V28.8ZM90.7353 26.8V94H94.7353V26.8H90.7353ZM92.7353 92H82.8473V96H92.7353V92ZM106.738 93.616L105.934 95.4473L105.942 95.4508L105.95 95.4543L106.738 93.616ZM100.402 88.528L98.7523 89.6591L98.7631 89.6749L98.7743 89.6905L100.402 88.528ZM100.402 72.304L98.7904 71.1192L98.7843 71.1277L100.402 72.304ZM106.834 67.408L106.098 65.5481L106.091 65.5511L106.083 65.5541L106.834 67.408ZM130.546 65.776V67.776H132.546V65.776H130.546ZM128.05 56.08L126.636 57.4942L126.636 57.4942L128.05 56.08ZM109.042 62.224L108.427 64.1272L110.512 64.8005L110.993 62.663L109.042 62.224ZM99.8257 59.248L97.9101 58.6733L97.3473 60.5494L99.2112 61.1512L99.8257 59.248ZM103.474 52.336L101.926 51.0695L101.922 51.0748L103.474 52.336ZM134.962 50.032L136.292 48.5387L136.292 48.5387L134.962 50.032ZM146.962 85.744H148.962V83.744H146.962V85.744ZM146.962 94V96H148.962V94H146.962ZM134.098 92.272L135.364 90.7241L135.364 90.7241L134.098 92.272ZM131.986 87.28H133.986V85.28H131.986V87.28ZM130.546 87.28V85.28H129.346L128.781 86.3388L130.546 87.28ZM128.242 90.64L129.803 91.8894L129.803 91.8894L128.242 90.64ZM123.73 94L124.553 95.8227L124.577 95.8118L124.601 95.8003L123.73 94ZM126.898 83.824L128.253 85.2951L128.263 85.2856L128.273 85.2759L126.898 83.824ZM130.546 73.456H132.546V71.456H130.546V73.456ZM110.386 75.184L111.51 76.8379L111.533 76.8228L111.554 76.8071L110.386 75.184ZM115.858 93.344C112.694 93.344 109.928 92.8073 107.526 91.7777L105.95 95.4543C108.923 96.7287 112.238 97.344 115.858 97.344V93.344ZM107.542 91.7847C105.233 90.7712 103.411 89.3002 102.029 87.3655L98.7743 89.6905C100.592 92.2358 102.994 94.1568 105.934 95.4473L107.542 91.7847ZM102.051 87.3969C100.782 85.5459 100.098 83.2379 100.098 80.368H96.0977C96.0977 83.8981 96.9496 87.0301 98.7523 89.6591L102.051 87.3969ZM100.098 80.368C100.098 77.4199 100.788 75.1732 102.019 73.4803L98.7843 71.1277C96.9434 73.6588 96.0977 76.7881 96.0977 80.368H100.098ZM102.013 73.4888C103.377 71.6333 105.213 70.2215 107.584 69.2619L106.083 65.5541C103.078 66.7705 100.626 68.6227 98.7904 71.1192L102.013 73.4888ZM107.569 69.2679C110.051 68.2866 112.9 67.776 116.146 67.776V63.776C112.48 63.776 109.12 64.3534 106.098 65.5481L107.569 69.2679ZM116.146 67.776H130.546V63.776H116.146V67.776ZM132.546 65.776V62.704H128.546V65.776H132.546ZM132.546 62.704C132.546 59.5185 131.566 56.7683 129.464 54.6658L126.636 57.4942C127.861 58.7197 128.546 60.3855 128.546 62.704H132.546ZM129.464 54.6658C127.28 52.4819 124.108 51.584 120.37 51.584V55.584C123.543 55.584 125.491 56.3501 126.636 57.4942L129.464 54.6658ZM120.37 51.584C116.688 51.584 113.547 52.4518 111.262 54.4921L113.926 57.4759C115.225 56.3162 117.268 55.584 120.37 55.584V51.584ZM111.262 54.4921C109.13 56.3957 107.749 58.8575 107.091 61.785L110.993 62.663C111.486 60.4705 112.474 58.7723 113.926 57.4759L111.262 54.4921ZM109.656 60.3208L100.44 57.3448L99.2112 61.1512L108.427 64.1272L109.656 60.3208ZM101.741 59.8227C102.435 57.5098 103.529 55.4396 105.026 53.5972L101.922 51.0748C100.091 53.3284 98.7522 55.8662 97.9101 58.6733L101.741 59.8227ZM105.022 53.6025C106.531 51.758 108.543 50.2388 111.117 49.0687L109.462 45.4273C106.404 46.8172 103.873 48.69 101.926 51.0695L105.022 53.6025ZM111.117 49.0687C113.611 47.9353 116.706 47.328 120.466 47.328V43.328C116.29 43.328 112.601 44.0007 109.462 45.4273L111.117 49.0687ZM120.466 47.328C126.271 47.328 130.577 48.8045 133.631 51.5253L136.292 48.5387C132.306 44.9875 126.948 43.328 120.466 43.328V47.328ZM133.631 51.5253C136.633 54.1992 138.242 58.0493 138.242 63.376H142.242C142.242 57.1827 140.331 52.1368 136.292 48.5387L133.631 51.5253ZM138.242 63.376V82.864H142.242V63.376H138.242ZM138.242 82.864C138.242 84.0993 138.527 85.3982 139.452 86.3886C140.4 87.4051 141.689 87.744 142.93 87.744V83.744C142.379 83.744 142.323 83.6029 142.376 83.6594C142.404 83.6898 142.242 83.5487 142.242 82.864H138.242ZM142.93 87.744H146.962V83.744H142.93V87.744ZM144.962 85.744V94H148.962V85.744H144.962ZM146.962 92H139.57V96H146.962V92ZM139.57 92C137.681 92 136.338 91.5209 135.364 90.7241L132.831 93.8199C134.673 95.3271 136.978 96 139.57 96V92ZM135.364 90.7241C134.466 89.9895 133.986 89.014 133.986 87.568H129.986C129.986 90.09 130.913 92.2505 132.831 93.8199L135.364 90.7241ZM133.986 87.568V87.28H129.986V87.568H133.986ZM131.986 85.28H130.546V89.28H131.986V85.28ZM128.781 86.3388C128.348 87.1503 127.661 88.1638 126.68 89.3906L129.803 91.8894C130.87 90.5562 131.719 89.3297 132.31 88.2212L128.781 86.3388ZM126.68 89.3906C125.895 90.372 124.662 91.327 122.859 92.1997L124.601 95.8003C126.765 94.753 128.541 93.468 129.803 91.8894L126.68 89.3906ZM122.907 92.1773C121.277 92.913 118.967 93.344 115.858 93.344V97.344C119.277 97.344 122.214 96.879 124.553 95.8227L122.907 92.1773ZM117.298 89.184C121.662 89.184 125.38 87.9409 128.253 85.2951L125.543 82.3529C123.551 84.1871 120.87 85.184 117.298 85.184V89.184ZM128.273 85.2759C131.177 82.5248 132.546 78.8234 132.546 74.416H128.546C128.546 77.9446 127.482 80.5152 125.522 82.3721L128.273 85.2759ZM132.546 74.416V73.456H128.546V74.416H132.546ZM130.546 71.456H116.722V75.456H130.546V71.456ZM116.722 71.456C113.816 71.456 111.254 72.0943 109.217 73.5609L111.554 76.8071C112.717 75.9697 114.38 75.456 116.722 75.456V71.456ZM109.261 73.5301C107.038 75.0416 105.986 77.3382 105.986 80.08H109.986C109.986 78.4698 110.533 77.5024 111.51 76.8379L109.261 73.5301ZM105.986 80.08C105.986 82.8505 107.086 85.1748 109.262 86.8492L111.701 83.6788C110.55 82.7932 109.986 81.6615 109.986 80.08H105.986ZM109.262 86.8492C111.386 88.4825 114.138 89.184 117.298 89.184V85.184C114.697 85.184 112.906 84.6055 111.701 83.6788L109.262 86.8492ZM158.811 92.464L157.88 94.2338L157.886 94.2372L157.892 94.2404L158.811 92.464ZM150.075 84.112L148.344 85.1141L148.351 85.1254L148.357 85.1366L150.075 84.112ZM150.075 56.656L148.357 55.6314L148.352 55.6406L150.075 56.656ZM158.811 48.304L159.743 50.0739L159.754 50.0679L158.811 48.304ZM182.811 47.824L183.734 46.0496L183.734 46.0496L182.811 47.824ZM190.491 54.448L188.851 55.5924L188.86 55.605L188.869 55.6176L190.491 54.448ZM194.331 63.568L194.742 65.5253L196.631 65.1287L196.302 63.2269L194.331 63.568ZM184.731 65.584L182.754 65.8836L183.071 67.9763L185.142 67.5413L184.731 65.584ZM182.715 59.824L180.994 60.8436L180.994 60.8436L182.715 59.824ZM178.395 55.696L179.361 53.9448L179.361 53.9448L178.395 55.696ZM163.899 56.08L164.875 57.8259L164.883 57.8212L164.891 57.8165L163.899 56.08ZM158.715 61.456L160.463 62.4273L160.469 62.4172L160.474 62.407L158.715 61.456ZM158.715 79.312L160.474 78.361L160.474 78.361L158.715 79.312ZM163.899 84.688L162.923 86.4339L162.934 86.4399L162.945 86.4457L163.899 84.688ZM180.891 83.344L182.284 84.7792L182.295 84.7688L182.305 84.7582L180.891 83.344ZM185.019 75.088L185.467 73.1389L183.409 72.6654L183.048 74.7469L185.019 75.088ZM194.619 77.296L196.566 77.7541L197.026 75.7974L195.067 75.3469L194.619 77.296ZM190.491 86.32L188.869 85.1504L188.86 85.1629L188.851 85.1756L190.491 86.32ZM182.811 92.944L183.705 94.7329L183.72 94.7258L183.734 94.7184L182.811 92.944ZM171.195 93.344C166.942 93.344 163.134 92.4481 159.73 90.6876L157.892 94.2404C161.912 96.3199 166.36 97.344 171.195 97.344V93.344ZM159.743 90.6942C156.43 88.9509 153.786 86.4295 151.793 83.0874L148.357 85.1366C150.716 89.0905 153.896 92.1371 157.88 94.2338L159.743 90.6942ZM151.806 83.1099C149.904 79.8256 148.907 75.8034 148.907 70.96H144.907C144.907 76.3566 146.022 81.1024 148.344 85.1141L151.806 83.1099ZM148.907 70.96V69.712H144.907V70.96H148.907ZM148.907 69.712C148.907 64.8671 149.905 60.884 151.798 57.6714L148.352 55.6406C146.021 59.596 144.907 64.3169 144.907 69.712H148.907ZM151.793 57.6806C153.786 54.3385 156.43 51.8171 159.743 50.0738L157.88 46.5342C153.896 48.6309 150.716 51.6775 148.357 55.6314L151.793 57.6806ZM159.754 50.0679C163.153 48.2511 166.953 47.328 171.195 47.328V43.328C166.349 43.328 161.893 44.3889 157.868 46.5401L159.754 50.0679ZM171.195 47.328C175.499 47.328 179.038 48.1162 181.888 49.5984L183.734 46.0496C180.184 44.2038 175.979 43.328 171.195 43.328V47.328ZM181.888 49.5984C184.824 51.1249 187.129 53.1249 188.851 55.5924L192.131 53.3036C190.013 50.2671 187.198 47.8511 183.734 46.0496L181.888 49.5984ZM188.869 55.6176C190.676 58.1246 191.836 60.8815 192.36 63.9091L196.302 63.2269C195.674 59.5985 194.274 56.2754 192.113 53.2784L188.869 55.6176ZM193.92 61.6107L184.32 63.6267L185.142 67.5413L194.742 65.5253L193.92 61.6107ZM186.708 65.2844C186.352 62.9344 185.599 60.7674 184.436 58.8044L180.994 60.8436C181.879 62.3366 182.47 64.0096 182.754 65.8836L186.708 65.2844ZM184.436 58.8044C183.22 56.7525 181.511 55.1312 179.361 53.9448L177.429 57.4472C178.991 58.3088 180.162 59.4395 180.994 60.8436L184.436 58.8044ZM179.361 53.9448C177.128 52.7127 174.434 52.16 171.387 52.16V56.16C173.972 56.16 175.95 56.6313 177.429 57.4472L179.361 53.9448ZM171.387 52.16C168.311 52.16 165.469 52.8793 162.907 54.3435L164.891 57.8165C166.809 56.7207 168.959 56.16 171.387 56.16V52.16ZM162.923 54.3341C160.389 55.7501 158.401 57.8308 156.956 60.505L160.474 62.407C161.589 60.3452 163.057 58.8419 164.875 57.8259L162.923 54.3341ZM156.967 60.4847C155.484 63.154 154.795 66.3237 154.795 69.904H158.795C158.795 66.8283 159.386 64.366 160.463 62.4273L156.967 60.4847ZM154.795 69.904V70.768H158.795V69.904H154.795ZM154.795 70.768C154.795 74.3507 155.485 77.5417 156.956 80.263L160.474 78.361C159.385 76.3463 158.795 73.8413 158.795 70.768H154.795ZM156.956 80.263C158.401 82.9372 160.389 85.0179 162.923 86.4339L164.875 82.9421C163.057 81.9261 161.589 80.4228 160.474 78.361L156.956 80.263ZM162.945 86.4457C165.501 87.8332 168.329 88.512 171.387 88.512V84.512C168.941 84.512 166.777 83.9748 164.853 82.9303L162.945 86.4457ZM171.387 88.512C175.87 88.512 179.614 87.3706 182.284 84.7792L179.498 81.9088C177.816 83.5414 175.224 84.512 171.387 84.512V88.512ZM182.305 84.7582C184.801 82.262 186.351 79.1221 186.99 75.4291L183.048 74.7469C182.535 77.7099 181.333 80.074 179.477 81.9298L182.305 84.7582ZM184.571 77.0371L194.171 79.2451L195.067 75.3469L185.467 73.1389L184.571 77.0371ZM192.672 76.8379C191.965 79.8426 190.701 82.6093 188.869 85.1504L192.113 87.4896C194.249 84.5267 195.737 81.2774 196.566 77.7541L192.672 76.8379ZM188.851 85.1756C187.129 87.6431 184.824 89.6431 181.888 91.1696L183.734 94.7184C187.198 92.9169 190.013 90.5009 192.131 87.4644L188.851 85.1756ZM181.917 91.1551C179.059 92.5839 175.51 93.344 171.195 93.344V97.344C175.968 97.344 180.163 96.5041 183.705 94.7329L181.917 91.1551ZM209.384 92.464L208.452 94.2338L208.458 94.2372L208.465 94.2404L209.384 92.464ZM200.648 84.112L198.917 85.1141L198.923 85.1254L198.93 85.1366L200.648 84.112ZM200.648 56.656L198.93 55.6314L198.924 55.6406L200.648 56.656ZM209.384 48.304L210.315 50.0739L210.326 50.0679L209.384 48.304ZM233.384 47.824L234.306 46.0496L234.306 46.0496L233.384 47.824ZM241.064 54.448L239.423 55.5924L239.432 55.605L239.441 55.6176L241.064 54.448ZM244.904 63.568L245.315 65.5253L247.203 65.1287L246.874 63.2269L244.904 63.568ZM235.304 65.584L233.326 65.8836L233.643 67.9763L235.715 67.5413L235.304 65.584ZM233.288 59.824L231.567 60.8436L231.567 60.8436L233.288 59.824ZM228.968 55.696L229.934 53.9448L229.934 53.9448L228.968 55.696ZM214.472 56.08L215.447 57.8259L215.455 57.8212L215.464 57.8165L214.472 56.08ZM209.288 61.456L211.036 62.4273L211.041 62.4172L211.047 62.407L209.288 61.456ZM209.288 79.312L211.047 78.361L211.047 78.361L209.288 79.312ZM214.472 84.688L213.496 86.4339L213.507 86.4399L213.517 86.4457L214.472 84.688ZM231.464 83.344L232.856 84.7792L232.867 84.7688L232.878 84.7582L231.464 83.344ZM235.592 75.088L236.04 73.1389L233.981 72.6654L233.621 74.7469L235.592 75.088ZM245.192 77.296L247.138 77.7541L247.599 75.7974L245.64 75.3469L245.192 77.296ZM241.064 86.32L239.441 85.1504L239.432 85.1629L239.423 85.1756L241.064 86.32ZM233.384 92.944L234.278 94.7329L234.292 94.7258L234.306 94.7184L233.384 92.944ZM221.768 93.344C217.515 93.344 213.706 92.4481 210.302 90.6876L208.465 94.2404C212.485 96.3199 216.932 97.344 221.768 97.344V93.344ZM210.315 90.6942C207.003 88.9509 204.359 86.4295 202.365 83.0874L198.93 85.1366C201.288 89.0905 204.468 92.1371 208.452 94.2338L210.315 90.6942ZM202.378 83.1099C200.477 79.8256 199.48 75.8034 199.48 70.96H195.48C195.48 76.3566 196.594 81.1024 198.917 85.1141L202.378 83.1099ZM199.48 70.96V69.712H195.48V70.96H199.48ZM199.48 69.712C199.48 64.8671 200.477 60.884 202.371 57.6714L198.924 55.6406C196.594 59.596 195.48 64.3169 195.48 69.712H199.48ZM202.365 57.6806C204.359 54.3385 207.003 51.8171 210.315 50.0738L208.452 46.5342C204.468 48.6309 201.288 51.6775 198.93 55.6314L202.365 57.6806ZM210.326 50.0679C213.725 48.2511 217.526 47.328 221.768 47.328V43.328C216.921 43.328 212.466 44.3889 208.441 46.5401L210.326 50.0679ZM221.768 47.328C226.072 47.328 229.61 48.1162 232.461 49.5984L234.306 46.0496C230.757 44.2038 226.551 43.328 221.768 43.328V47.328ZM232.461 49.5984C235.396 51.1249 237.702 53.1249 239.423 55.5924L242.704 53.3036C240.585 50.2671 237.771 47.8511 234.306 46.0496L232.461 49.5984ZM239.441 55.6176C241.249 58.1246 242.409 60.8815 242.933 63.9091L246.874 63.2269C246.246 59.5985 244.847 56.2754 242.686 53.2784L239.441 55.6176ZM244.492 61.6107L234.892 63.6267L235.715 67.5413L245.315 65.5253L244.492 61.6107ZM237.281 65.2844C236.925 62.9344 236.171 60.7674 235.008 58.8044L231.567 60.8436C232.452 62.3366 233.042 64.0096 233.326 65.8836L237.281 65.2844ZM235.008 58.8044C233.792 56.7525 232.084 55.1312 229.934 53.9448L228.001 57.4472C229.563 58.3088 230.735 59.4395 231.567 60.8436L235.008 58.8044ZM229.934 53.9448C227.7 52.7127 225.006 52.16 221.96 52.16V56.16C224.545 56.16 226.523 56.6313 228.001 57.4472L229.934 53.9448ZM221.96 52.16C218.883 52.16 216.042 52.8793 213.479 54.3435L215.464 57.8165C217.381 56.7207 219.532 56.16 221.96 56.16V52.16ZM213.496 54.3341C210.962 55.7501 208.974 57.8308 207.528 60.505L211.047 62.407C212.161 60.3452 213.629 58.8419 215.447 57.8259L213.496 54.3341ZM207.539 60.4847C206.056 63.154 205.368 66.3237 205.368 69.904H209.368C209.368 66.8283 209.959 64.366 211.036 62.4273L207.539 60.4847ZM205.368 69.904V70.768H209.368V69.904H205.368ZM205.368 70.768C205.368 74.3507 206.057 77.5417 207.528 80.263L211.047 78.361C209.958 76.3463 209.368 73.8413 209.368 70.768H205.368ZM207.528 80.263C208.974 82.9372 210.962 85.0179 213.496 86.4339L215.447 82.9421C213.629 81.9261 212.161 80.4228 211.047 78.361L207.528 80.263ZM213.517 86.4457C216.073 87.8332 218.902 88.512 221.96 88.512V84.512C219.513 84.512 217.35 83.9748 215.426 82.9303L213.517 86.4457ZM221.96 88.512C226.443 88.512 230.186 87.3706 232.856 84.7792L230.071 81.9088C228.389 83.5414 225.796 84.512 221.96 84.512V88.512ZM232.878 84.7582C235.374 82.262 236.923 79.1221 237.562 75.4291L233.621 74.7469C233.108 77.7099 231.905 80.074 230.049 81.9298L232.878 84.7582ZM235.143 77.0371L244.743 79.2451L245.64 75.3469L236.04 73.1389L235.143 77.0371ZM243.245 76.8379C242.538 79.8426 241.273 82.6093 239.441 85.1504L242.686 87.4896C244.822 84.5267 246.309 81.2774 247.138 77.7541L243.245 76.8379ZM239.423 85.1756C237.702 87.6431 235.396 89.6431 232.461 91.1696L234.306 94.7184C237.771 92.9169 240.585 90.5009 242.704 87.4644L239.423 85.1756ZM232.489 91.1551C229.632 92.5839 226.083 93.344 221.768 93.344V97.344C226.54 97.344 230.736 96.5041 234.278 94.7329L232.489 91.1551ZM259.092 92.464L260.091 90.7316L260.091 90.7316L259.092 92.464ZM251.028 84.208L249.271 85.1635L249.281 85.182L249.292 85.2003L251.028 84.208ZM277.62 46.48L276.918 48.3527L276.927 48.3562L276.937 48.3596L277.62 46.48ZM282.804 49.456L281.462 50.9391L281.482 50.9571L281.502 50.9745L282.804 49.456ZM285.876 53.104L284.124 54.0678L284.693 55.104H285.876V53.104ZM287.412 53.104V55.104H289.412V53.104H287.412ZM287.412 26.8V24.8H285.412V26.8H287.412ZM297.3 26.8H299.3V24.8H297.3V26.8ZM297.3 94V96H299.3V94H297.3ZM287.604 94H285.604V96H287.604V94ZM287.604 87.28H289.604V85.28H287.604V87.28ZM286.068 87.28V85.28H284.93L284.348 86.2589L286.068 87.28ZM280.5 92.848L279.391 91.1839L279.381 91.1906L279.371 91.1974L280.5 92.848ZM283.284 82.576L281.886 81.1456L281.878 81.1537L281.87 81.1618L283.284 82.576ZM283.38 58.192L284.794 56.7778L284.794 56.7778L283.38 58.192ZM262.164 58.192L260.766 56.7616L260.758 56.7697L260.75 56.7778L262.164 58.192ZM262.164 82.576L260.75 83.9902L260.758 83.9983L260.766 84.0064L262.164 82.576ZM269.94 93.344C266.381 93.344 263.11 92.4734 260.091 90.7316L258.093 94.1964C261.73 96.2946 265.691 97.344 269.94 97.344V93.344ZM260.091 90.7316C257.093 89.0018 254.65 86.5158 252.764 83.2157L249.292 85.2003C251.502 89.0682 254.435 92.0862 258.093 94.1964L260.091 90.7316ZM252.785 83.2525C250.994 79.9585 250.052 75.919 250.052 71.056H246.052C246.052 76.433 247.094 81.1615 249.271 85.1635L252.785 83.2525ZM250.052 71.056V69.616H246.052V71.056H250.052ZM250.052 69.616C250.052 64.8218 250.992 60.813 252.785 57.5155L249.271 55.6045C247.096 59.603 246.052 64.2982 246.052 69.616H250.052ZM252.785 57.5155C254.608 54.1642 257.012 51.6613 259.995 49.9404L257.997 46.4756C254.324 48.5947 251.416 51.6598 249.271 55.6045L252.785 57.5155ZM259.995 49.9404C263.009 48.2016 266.311 47.328 269.94 47.328V43.328C265.633 43.328 261.639 44.3744 257.997 46.4756L259.995 49.9404ZM269.94 47.328C272.862 47.328 275.165 47.6954 276.918 48.3527L278.322 44.6073C275.979 43.7286 273.162 43.328 269.94 43.328V47.328ZM276.937 48.3596C278.862 49.0597 280.35 49.9327 281.462 50.9391L284.146 47.9729C282.57 46.5473 280.602 45.4363 278.303 44.6004L276.937 48.3596ZM281.502 50.9745C282.702 52.0023 283.557 53.0376 284.124 54.0678L287.628 52.1402C286.787 50.6104 285.594 49.2137 284.106 47.9375L281.502 50.9745ZM285.876 55.104H287.412V51.104H285.876V55.104ZM289.412 53.104V26.8H285.412V53.104H289.412ZM287.412 28.8H297.3V24.8H287.412V28.8ZM295.3 26.8V94H299.3V26.8H295.3ZM297.3 92H287.604V96H297.3V92ZM289.604 94V87.28H285.604V94H289.604ZM287.604 85.28H286.068V89.28H287.604V85.28ZM284.348 86.2589C283.319 87.9918 281.7 89.644 279.391 91.1839L281.609 94.5121C284.292 92.724 286.385 90.6642 287.788 88.3011L284.348 86.2589ZM279.371 91.1974C277.41 92.5386 274.355 93.344 269.94 93.344V97.344C274.741 97.344 278.726 96.4854 281.629 94.4986L279.371 91.1974ZM272.724 88.704C277.483 88.704 281.531 87.1572 284.698 83.9902L281.87 81.1618C279.533 83.4988 276.541 84.704 272.724 84.704V88.704ZM284.682 84.0064C287.989 80.7743 289.508 76.2573 289.508 70.768H285.508C285.508 75.5187 284.211 78.8737 281.886 81.1456L284.682 84.0064ZM289.508 70.768V69.904H285.508V70.768H289.508ZM289.508 69.904C289.508 64.483 288.024 60.0075 284.794 56.7778L281.966 59.6062C284.24 61.8805 285.508 65.213 285.508 69.904H289.508ZM284.794 56.7778C281.621 53.6049 277.538 52.064 272.724 52.064V56.064C276.614 56.064 279.635 57.2751 281.966 59.6062L284.794 56.7778ZM272.724 52.064C268.019 52.064 263.985 53.6162 260.766 56.7616L263.562 59.6224C265.975 57.2638 268.981 56.064 272.724 56.064V52.064ZM260.75 56.7778C257.52 60.0075 256.036 64.483 256.036 69.904H260.036C260.036 65.213 261.304 61.8805 263.578 59.6062L260.75 56.7778ZM256.036 69.904V70.768H260.036V69.904H256.036ZM256.036 70.768C256.036 76.2447 257.516 80.7559 260.75 83.9902L263.578 81.1618C261.308 78.8921 260.036 75.5313 260.036 70.768H256.036ZM260.766 84.0064C263.985 87.1518 268.019 88.704 272.724 88.704V84.704C268.981 84.704 265.975 83.5042 263.562 81.1456L260.766 84.0064ZM315.12 92.464L314.164 94.221L314.183 94.2309L314.201 94.2404L315.12 92.464ZM306.48 84.016L304.749 85.0181L304.749 85.0181L306.48 84.016ZM306.48 56.752L308.203 57.7674L308.207 57.7607L308.211 57.7541L306.48 56.752ZM315.12 48.304L314.177 46.5401L314.171 46.5436L314.164 46.547L315.12 48.304ZM340.464 48.304L339.521 50.0679L339.521 50.0679L340.464 48.304ZM349.2 56.752L347.469 57.7541L347.473 57.7607L347.477 57.7674L349.2 56.752ZM349.2 84.016L350.931 85.0181L350.931 85.0181L349.2 84.016ZM340.464 92.464L341.383 94.2404L341.395 94.2342L341.407 94.2279L340.464 92.464ZM338.352 82.384L336.922 80.9861L336.921 80.9865L338.352 82.384ZM338.448 58.384L337.001 59.7649L337.009 59.7733L337.017 59.7815L338.448 58.384ZM317.232 58.384L315.802 56.9861L315.801 56.9865L317.232 58.384ZM317.232 82.384L315.785 83.765L315.801 83.7818L315.818 83.7982L317.232 82.384ZM327.792 93.344C323.333 93.344 319.431 92.4421 316.039 90.6876L314.201 94.2404C318.233 96.3259 322.779 97.344 327.792 97.344V93.344ZM316.076 90.707C312.756 88.9014 310.142 86.3489 308.211 83.0139L304.749 85.0181C307.042 88.9791 310.188 92.0586 314.164 94.221L316.076 90.707ZM308.211 83.0139C306.305 79.7223 305.312 75.7613 305.312 71.056H301.312C301.312 76.3347 302.431 81.0137 304.749 85.0181L308.211 83.0139ZM305.312 71.056V69.616H301.312V71.056H305.312ZM305.312 69.616C305.312 64.9095 306.306 60.9874 308.203 57.7674L304.757 55.7366C302.43 59.6846 301.312 64.3385 301.312 69.616H305.312ZM308.211 57.7541C310.142 54.4191 312.756 51.8666 316.076 50.061L314.164 46.547C310.188 48.7094 307.042 51.7889 304.749 55.7499L308.211 57.7541ZM316.063 50.0679C319.45 48.2575 323.343 47.328 327.792 47.328V43.328C322.769 43.328 318.214 44.3825 314.177 46.5401L316.063 50.0679ZM327.792 47.328C332.241 47.328 336.134 48.2575 339.521 50.0679L341.407 46.5401C337.37 44.3825 332.815 43.328 327.792 43.328V47.328ZM339.521 50.0679C342.904 51.876 345.543 54.4279 347.469 57.7541L350.931 55.7499C348.633 51.7801 345.448 48.7 341.407 46.5401L339.521 50.0679ZM347.477 57.7674C349.374 60.9874 350.368 64.9095 350.368 69.616H354.368C354.368 64.3385 353.25 59.6846 350.923 55.7366L347.477 57.7674ZM350.368 69.616V71.056H354.368V69.616H350.368ZM350.368 71.056C350.368 75.7613 349.375 79.7223 347.469 83.0139L350.931 85.0181C353.249 81.0137 354.368 76.3347 354.368 71.056H350.368ZM347.469 83.0139C345.543 86.3401 342.904 88.892 339.521 90.7001L341.407 94.2279C345.448 92.068 348.633 88.9879 350.931 85.0181L347.469 83.0139ZM339.545 90.6876C336.153 92.4421 332.251 93.344 327.792 93.344V97.344C332.805 97.344 337.351 96.3259 341.383 94.2404L339.545 90.6876ZM327.792 88.512C332.605 88.512 336.668 86.9708 339.783 83.7815L336.921 80.9865C334.66 83.3012 331.683 84.512 327.792 84.512V88.512ZM339.782 83.7819C342.986 80.5038 344.48 76.0802 344.48 70.768H340.48C340.48 75.3118 339.222 78.6322 336.922 80.9861L339.782 83.7819ZM344.48 70.768V69.904H340.48V70.768H344.48ZM344.48 69.904C344.48 64.6069 343.026 60.209 339.879 56.9865L337.017 59.7815C339.246 62.063 340.48 65.3451 340.48 69.904H344.48ZM339.895 57.003C336.777 53.737 332.674 52.16 327.792 52.16V56.16C331.742 56.16 334.743 57.399 337.001 59.7649L339.895 57.003ZM327.792 52.16C323.019 52.16 318.965 53.7487 315.802 56.9861L318.662 59.7819C321.003 57.3873 323.989 56.16 327.792 56.16V52.16ZM315.801 56.9865C312.654 60.209 311.2 64.6069 311.2 69.904H315.2C315.2 65.3451 316.434 62.063 318.663 59.7815L315.801 56.9865ZM311.2 69.904V70.768H315.2V69.904H311.2ZM311.2 70.768C311.2 76.0675 312.654 80.485 315.785 83.765L318.679 81.003C316.434 78.651 315.2 75.3245 315.2 70.768H311.2ZM315.818 83.7982C318.985 86.9652 323.033 88.512 327.792 88.512V84.512C323.975 84.512 320.983 83.3068 318.646 80.9698L315.818 83.7982ZM367.599 91.408L366.158 92.7953L366.171 92.8089L366.185 92.8222L367.599 91.408ZM365.103 55.024H367.103V53.024H365.103V55.024ZM352.047 55.024H350.047V57.024H352.047V55.024ZM352.047 46.672V44.672H350.047V46.672H352.047ZM365.103 46.672V48.672H367.103V46.672H365.103ZM365.103 31.024V29.024H363.103V31.024H365.103ZM374.991 31.024H376.991V29.024H374.991V31.024ZM374.991 46.672H372.991V48.672H374.991V46.672ZM389.103 46.672H391.103V44.672H389.103V46.672ZM389.103 55.024V57.024H391.103V55.024H389.103ZM374.991 55.024V53.024H372.991V55.024H374.991ZM387.567 85.648H389.567V83.648H387.567V85.648ZM387.567 94V96H389.567V94H387.567ZM374.511 92C372.06 92 370.3 91.2803 369.013 89.9938L366.185 92.8222C368.354 94.9917 371.203 96 374.511 96V92ZM369.04 90.0207C367.804 88.738 367.103 86.969 367.103 84.496H363.103C363.103 87.783 364.066 90.622 366.158 92.7953L369.04 90.0207ZM367.103 84.496V55.024H363.103V84.496H367.103ZM365.103 53.024H352.047V57.024H365.103V53.024ZM354.047 55.024V46.672H350.047V55.024H354.047ZM352.047 48.672H365.103V44.672H352.047V48.672ZM367.103 46.672V31.024H363.103V46.672H367.103ZM365.103 33.024H374.991V29.024H365.103V33.024ZM372.991 31.024V46.672H376.991V31.024H372.991ZM374.991 48.672H389.103V44.672H374.991V48.672ZM387.103 46.672V55.024H391.103V46.672H387.103ZM389.103 53.024H374.991V57.024H389.103V53.024ZM372.991 55.024V82.768H376.991V55.024H372.991ZM372.991 82.768C372.991 84.0033 373.276 85.3022 374.201 86.2926C375.15 87.3091 376.438 87.648 377.679 87.648V83.648C377.128 83.648 377.072 83.5069 377.125 83.5634C377.154 83.5938 376.991 83.4527 376.991 82.768H372.991ZM377.679 87.648H387.567V83.648H377.679V87.648ZM385.567 85.648V94H389.567V85.648H385.567ZM387.567 92H374.511V96H387.567V92Z" fill="white"/>
</g>
</svg>
